<svg width="18" height="32" viewBox="195 543 18 32" xmlns="http://www.w3.org/2000/svg"><g fill="#000" fill-rule="evenodd"><path d="M196.588 564.867v-1.6h-1.059v1.6zM200.824 564.867v-1.6h-2.118v1.6h2.118zm4.235 0v-1.6h-2.118v1.6h2.118zm4.235 0v-1.6h-2.118v1.6h2.118zM212.47 564.867v-1.6h-1.058v1.6z"/><path d="M211.412 573.4v-28.8h-2.152a5.514 5.514 0 0 1-4.73 2.667 5.514 5.514 0 0 1-4.731-2.667h-3.21v28.8h3.21a5.514 5.514 0 0 1 4.73-2.667 5.514 5.514 0 0 1 4.731 2.667h2.152zM213 543v32h-4.699l-.219-.444a3.947 3.947 0 0 0-3.553-2.223 3.947 3.947 0 0 0-3.552 2.223l-.22.444H195v-32h5.757l.22.444a3.947 3.947 0 0 0 3.552 2.223 3.947 3.947 0 0 0 3.553-2.223l.22-.444H213z"/></g></svg>